<svg width="513" height="513" viewBox="0 0 513 513" fill="none" xmlns="http://www.w3.org/2000/svg">
<path d="M255.979 61.96C230.366 61.9628 205.004 67.0104 181.342 76.8146C157.679 86.6189 136.18 100.988 118.071 119.101C99.9615 137.214 85.5973 158.717 75.7982 182.381C65.9991 206.045 60.957 231.408 60.9598 257.021C61.4954 308.394 82.279 357.481 118.796 393.619C155.313 429.757 204.614 450.028 255.989 450.028C307.365 450.028 356.665 429.757 393.182 393.619C429.699 357.481 450.483 308.394 451.018 257.021C451.021 231.406 445.979 206.042 436.178 182.376C426.378 158.71 412.012 137.207 393.9 119.093C375.789 100.98 354.287 86.6116 330.622 76.8086C306.957 67.0056 281.593 61.96 255.979 61.96V61.96ZM256 320.621C247.648 320.621 239.377 318.976 231.661 315.78C223.945 312.584 216.934 307.899 211.028 301.993C205.122 296.087 200.437 289.076 197.241 281.36C194.045 273.644 192.4 265.373 192.4 257.021C192.4 248.669 194.045 240.399 197.241 232.683C200.437 224.966 205.122 217.955 211.028 212.049C216.934 206.143 223.945 201.459 231.661 198.262C239.377 195.066 247.648 193.421 256 193.421C272.867 193.421 289.044 200.122 300.972 212.049C312.899 223.977 319.6 240.153 319.6 257.021C319.6 273.889 312.899 290.066 300.972 301.993C289.044 313.921 272.867 320.621 256 320.621V320.621Z" fill="#B65B6B"/>
<path d="M256.758 144.8C277.558 144.8 296.491 149.733 313.558 159.6C330.624 169.2 343.958 182.533 353.558 199.6C363.424 216.667 368.358 235.733 368.358 256.8V354C368.358 357.467 367.291 360.4 365.158 362.8C363.024 364.933 360.091 366 356.358 366C352.891 366 349.958 364.933 347.558 362.8C345.424 360.4 344.358 357.467 344.358 354V322.8C335.558 336.933 323.424 348.133 307.958 356.4C292.758 364.4 275.691 368.4 256.758 368.4C235.691 368.4 216.624 363.6 199.558 354C182.491 344.133 169.024 330.667 159.158 313.6C149.558 296.533 144.758 277.6 144.758 256.8C144.758 235.733 149.558 216.667 159.158 199.6C169.024 182.533 182.491 169.2 199.558 159.6C216.624 149.733 235.691 144.8 256.758 144.8ZM256.758 346C273.291 346 288.224 342.133 301.558 334.4C314.891 326.667 325.291 316 332.758 302.4C340.491 288.8 344.358 273.6 344.358 256.8C344.358 240 340.491 224.8 332.758 211.2C325.291 197.6 314.891 186.933 301.558 179.2C288.224 171.2 273.291 167.2 256.758 167.2C240.224 167.2 225.291 171.2 211.958 179.2C198.624 186.933 188.091 197.6 180.358 211.2C172.624 224.8 168.758 240 168.758 256.8C168.758 273.6 172.624 288.8 180.358 302.4C188.091 316 198.624 326.667 211.958 334.4C225.291 342.133 240.224 346 256.758 346Z" fill="#F19171"/>
</svg>
