<svg width="16" height="16" viewBox="0 0 16 16" fill="none" xmlns="http://www.w3.org/2000/svg">
<rect width="16" height="16" fill="#B65B6B"/>
<path d="M8.00064 1.56C8.84636 1.56009 9.68377 1.72676 10.4651 2.05048C11.2464 2.37421 11.9563 2.84865 12.5542 3.44672C13.1521 4.0448 13.6264 4.75479 13.95 5.53616C14.2735 6.31753 14.44 7.15498 14.4399 8.00069C14.4223 9.69696 13.736 11.3178 12.5303 12.511C11.3245 13.7042 9.69666 14.3735 8.00029 14.3735C6.30393 14.3735 4.67607 13.7042 3.47033 12.511C2.26458 11.3178 1.57833 9.69696 1.56064 8.00069C1.56055 7.15492 1.72706 6.31742 2.05066 5.536C2.37426 4.75458 2.84861 4.04456 3.44663 3.44648C4.04465 2.84839 4.75462 2.37396 5.536 2.05028C6.31738 1.7266 7.15487 1.56 8.00064 1.56V1.56ZM7.99994 10.1007C8.27572 10.1007 8.54879 10.0464 8.80358 9.94084C9.05836 9.8353 9.28986 9.68062 9.48487 9.48562C9.67987 9.29061 9.83456 9.05911 9.94009 8.80433C10.0456 8.54954 10.0999 8.27647 10.0999 8.00069C10.0999 7.72492 10.0456 7.45184 9.94009 7.19706C9.83456 6.94228 9.67987 6.71077 9.48487 6.51577C9.28986 6.32077 9.05836 6.16608 8.80358 6.06055C8.54879 5.95501 8.27572 5.90069 7.99994 5.90069C7.44299 5.90069 6.90885 6.12194 6.51502 6.51577C6.12119 6.9096 5.89994 7.44374 5.89994 8.00069C5.89994 8.55765 6.12119 9.09179 6.51502 9.48562C6.90885 9.87944 7.44299 10.1007 7.99994 10.1007V10.1007Z" fill="#383636"/>
<path d="M8.02842 4.917C8.60042 4.917 9.12109 5.05267 9.59042 5.324C10.0598 5.588 10.4264 5.95467 10.6904 6.424C10.9618 6.89333 11.0974 7.41767 11.0974 7.997V10.67C11.0974 10.7653 11.0681 10.846 11.0094 10.912C10.9508 10.9707 10.8701 11 10.7674 11C10.6721 11 10.5914 10.9707 10.5254 10.912C10.4668 10.846 10.4374 10.7653 10.4374 10.67V9.812C10.1954 10.2007 9.86176 10.5087 9.43642 10.736C9.01842 10.956 8.54909 11.066 8.02842 11.066C7.44909 11.066 6.92476 10.934 6.45542 10.67C5.98609 10.3987 5.61576 10.0283 5.34442 9.559C5.08042 9.08967 4.94842 8.569 4.94842 7.997C4.94842 7.41767 5.08042 6.89333 5.34442 6.424C5.61576 5.95467 5.98609 5.588 6.45542 5.324C6.92476 5.05267 7.44909 4.917 8.02842 4.917ZM8.02842 10.45C8.48309 10.45 8.89376 10.3437 9.26042 10.131C9.62709 9.91833 9.91309 9.625 10.1184 9.251C10.3311 8.877 10.4374 8.459 10.4374 7.997C10.4374 7.535 10.3311 7.117 10.1184 6.743C9.91309 6.369 9.62709 6.07567 9.26042 5.863C8.89376 5.643 8.48309 5.533 8.02842 5.533C7.57376 5.533 7.16309 5.643 6.79642 5.863C6.42976 6.07567 6.14009 6.369 5.92742 6.743C5.71476 7.117 5.60842 7.535 5.60842 7.997C5.60842 8.459 5.71476 8.877 5.92742 9.251C6.14009 9.625 6.42976 9.91833 6.79642 10.131C7.16309 10.3437 7.57376 10.45 8.02842 10.45Z" fill="white"/>
</svg>
