<svg width="1301" height="1321" viewBox="0 0 1301 1321" fill="none" xmlns="http://www.w3.org/2000/svg">
<g clip-path="url(#clip0)">
<path d="M649.428 13.6C563.951 13.6093 479.312 30.4545 400.345 63.1739C321.378 95.8932 249.629 143.846 189.193 204.294C128.758 264.742 80.8213 336.502 48.1191 415.477C15.4169 494.451 -1.40992 579.093 -1.40063 664.571C0.386875 836.015 69.7471 999.831 191.614 1120.43C313.48 1241.04 478.01 1308.68 649.464 1308.68C820.918 1308.68 985.447 1241.04 1107.31 1120.43C1229.18 999.831 1298.54 836.015 1300.33 664.571C1300.34 579.087 1283.51 494.439 1250.8 415.46C1218.1 336.481 1170.15 264.718 1109.71 204.269C1049.27 143.82 977.509 95.8688 898.533 63.1536C819.558 30.4383 734.912 13.6 649.428 13.6V13.6ZM649.499 876.821C621.626 876.821 594.026 871.331 568.275 860.664C542.523 849.998 519.125 834.363 499.416 814.654C479.707 794.945 464.072 771.547 453.406 745.795C442.739 720.044 437.249 692.444 437.249 664.571C437.249 636.698 442.739 609.098 453.406 583.346C464.072 557.595 479.707 534.197 499.416 514.487C519.125 494.778 542.523 479.144 568.275 468.477C594.026 457.811 621.626 452.321 649.499 452.321C705.791 452.321 759.778 474.683 799.583 514.487C839.387 554.292 861.749 608.279 861.749 664.571C861.749 720.863 839.387 774.85 799.583 814.654C759.778 854.459 705.791 876.821 649.499 876.821V876.821Z" fill="#383636"/>
<path d="M650.823 307.436C718.423 307.436 779.956 323.469 835.423 355.536C890.889 386.736 934.223 430.069 965.423 485.536C997.489 541.003 1013.52 602.969 1013.52 671.436V987.336C1013.52 998.603 1010.06 1008.14 1003.12 1015.94C996.189 1022.87 986.656 1026.34 974.523 1026.34C963.256 1026.34 953.723 1022.87 945.923 1015.94C938.989 1008.14 935.523 998.603 935.523 987.336V885.936C906.923 931.869 867.489 968.269 817.223 995.136C767.823 1021.14 712.356 1034.14 650.823 1034.14C582.356 1034.14 520.389 1018.54 464.923 987.336C409.456 955.269 365.689 911.503 333.623 856.036C302.423 800.569 286.823 739.036 286.823 671.436C286.823 602.969 302.423 541.003 333.623 485.536C365.689 430.069 409.456 386.736 464.923 355.536C520.389 323.469 582.356 307.436 650.823 307.436ZM650.823 961.336C704.556 961.336 753.089 948.769 796.423 923.636C839.756 898.503 873.556 863.836 897.823 819.636C922.956 775.436 935.523 726.036 935.523 671.436C935.523 616.836 922.956 567.436 897.823 523.236C873.556 479.036 839.756 444.369 796.423 419.236C753.089 393.236 704.556 380.236 650.823 380.236C597.089 380.236 548.556 393.236 505.223 419.236C461.889 444.369 427.656 479.036 402.523 523.236C377.389 567.436 364.823 616.836 364.823 671.436C364.823 726.036 377.389 775.436 402.523 819.636C427.656 863.836 461.889 898.503 505.223 923.636C548.556 948.769 597.089 961.336 650.823 961.336Z" fill="white"/>
</g>
<defs>
<clipPath id="clip0">
<rect width="1301" height="1321" fill="white"/>
</clipPath>
</defs>
</svg>
