<svg width="5010" height="1321" viewBox="0 0 5010 1321" fill="none" xmlns="http://www.w3.org/2000/svg">
<g clip-path="url(#clip0)">
<path d="M1562.33 1026C1524.33 1026 1492.99 1010.67 1468.33 980C1444.33 949.333 1432.33 909.667 1432.33 861V275C1432.33 265.667 1434.99 258.333 1440.33 253C1446.33 247.667 1453.66 245 1462.33 245C1471.66 245 1478.99 247.667 1484.33 253C1489.66 258.333 1492.33 265.667 1492.33 275V861C1492.33 891.667 1498.66 917 1511.33 937C1524.66 956.333 1541.66 966 1562.33 966H1587.33C1594.66 966 1600.66 968.667 1605.33 974C1609.99 979.333 1612.33 986.667 1612.33 996C1612.33 1004.67 1609.66 1012 1604.33 1018C1598.99 1023.33 1591.66 1026 1582.33 1026H1562.33ZM2000.86 473C2053.53 473 2101.19 485.333 2143.86 510C2186.53 534 2219.86 567.333 2243.86 610C2268.53 652.667 2280.86 700 2280.86 752C2280.86 804.667 2268.53 852.333 2243.86 895C2219.86 937.667 2186.53 971.333 2143.86 996C2101.19 1020 2053.53 1032 2000.86 1032C1949.53 1032 1902.53 1020.33 1859.86 997C1817.86 973 1784.53 940 1759.86 898C1735.19 856 1722.53 809.333 1721.86 758V756V275C1721.86 265.667 1724.53 258.333 1729.86 253C1735.86 247.667 1743.19 245 1751.86 245C1761.19 245 1768.53 247.667 1773.86 253C1779.19 258.333 1781.86 265.667 1781.86 275V587C1803.86 551.667 1833.86 524 1871.86 504C1910.53 483.333 1953.53 473 2000.86 473ZM2000.86 976C2042.19 976 2079.53 966.333 2112.86 947C2146.19 927 2172.53 900 2191.86 866C2211.19 832 2220.86 794 2220.86 752C2220.86 710 2211.19 672 2191.86 638C2172.53 604 2146.19 577.333 2112.86 558C2079.53 538.667 2042.19 529 2000.86 529C1959.53 529 1922.19 538.667 1888.86 558C1855.53 577.333 1829.19 604 1809.86 638C1791.19 672 1781.86 710 1781.86 752C1781.86 794 1791.19 832 1809.86 866C1829.19 900 1855.53 927 1888.86 947C1922.19 966.333 1959.53 976 2000.86 976ZM2893.84 479C2903.18 479 2910.51 481.667 2915.84 487C2921.18 492.333 2923.84 499.667 2923.84 509V996C2923.84 1004.67 2921.18 1012 2915.84 1018C2910.51 1023.33 2903.18 1026 2893.84 1026C2885.18 1026 2877.84 1023.33 2871.84 1018C2866.51 1012 2863.84 1004.67 2863.84 996V944C2841.18 972 2813.51 994 2780.84 1010C2748.18 1025.33 2712.51 1033 2673.84 1033C2625.18 1033 2581.51 1023 2542.84 1003C2504.84 983 2474.84 954 2452.84 916C2431.51 877.333 2420.84 831.333 2420.84 778V509C2420.84 500.333 2423.51 493.333 2428.84 488C2434.84 482 2442.18 479 2450.84 479C2459.51 479 2466.51 482 2471.84 488C2477.84 493.333 2480.84 500.333 2480.84 509V778C2480.84 841.333 2498.51 889.667 2533.84 923C2569.84 956.333 2616.51 973 2673.84 973C2709.18 973 2741.18 966.333 2769.84 953C2799.18 939 2822.18 920 2838.84 896C2855.51 871.333 2863.84 844.333 2863.84 815V509C2863.84 499.667 2866.51 492.333 2871.84 487C2877.84 481.667 2885.18 479 2893.84 479ZM3680.7 472C3720.7 472 3756.36 482 3787.7 502C3819.03 522 3843.36 550 3860.7 586C3878.03 621.333 3886.7 661.667 3886.7 707V996C3886.7 1004.67 3884.03 1012 3878.7 1018C3873.36 1023.33 3866.03 1026 3856.7 1026C3848.03 1026 3840.7 1023.33 3834.7 1018C3829.36 1012 3826.7 1004.67 3826.7 996V707C3826.7 655.667 3813.03 613.667 3785.7 581C3758.36 548.333 3723.36 532 3680.7 532C3634.03 532 3596.36 547.333 3567.7 578C3539.03 608.667 3525.36 649.333 3526.7 700V707V996C3526.7 1004.67 3524.03 1012 3518.7 1018C3513.36 1023.33 3506.03 1026 3496.7 1026C3488.03 1026 3480.7 1023.33 3474.7 1018C3469.36 1012 3466.7 1004.67 3466.7 996V707C3466.7 655.667 3453.03 613.667 3425.7 581C3398.36 548.333 3363.36 532 3320.7 532C3274.7 532 3237.03 546.667 3207.7 576C3178.36 605.333 3163.7 643.333 3163.7 690V996C3163.7 1004.67 3161.03 1012 3155.7 1018C3150.36 1023.33 3143.03 1026 3133.7 1026C3125.03 1026 3117.7 1023.33 3111.7 1018C3106.36 1012 3103.7 1004.67 3103.7 996V509C3103.7 499.667 3106.36 492.333 3111.7 487C3117.7 481.667 3125.03 479 3133.7 479C3143.03 479 3150.36 481.667 3155.7 487C3161.03 492.333 3163.7 499.667 3163.7 509V548C3182.36 524 3205.36 505.333 3232.7 492C3260.03 478.667 3289.36 472 3320.7 472C3359.36 472 3394.03 481.667 3424.7 501C3455.36 519.667 3479.7 545.667 3497.7 579C3515.7 545.667 3540.7 519.667 3572.7 501C3604.7 481.667 3640.7 472 3680.7 472ZM4283.82 474C4332.49 474 4375.82 485.667 4413.82 509C4452.49 531.667 4482.49 563.333 4503.82 604C4525.15 644.667 4535.82 691 4535.82 743C4535.82 751.667 4533.15 758.667 4527.82 764C4522.49 768.667 4515.49 771 4506.82 771H4087.82C4089.82 810.333 4100.15 845.667 4118.82 877C4137.49 907.667 4162.49 931.667 4193.82 949C4225.15 966.333 4260.15 975 4298.82 975C4324.82 975 4350.82 970.667 4376.82 962C4403.49 952.667 4424.49 940.667 4439.82 926C4446.49 920.667 4453.49 918 4460.82 918C4468.15 918 4474.15 920 4478.82 924C4486.15 930 4489.82 937 4489.82 945C4489.82 951.667 4486.82 958 4480.82 964C4459.49 983.333 4431.49 999.333 4396.82 1012C4362.82 1024.67 4330.15 1031 4298.82 1031C4246.15 1031 4199.15 1019.33 4157.82 996C4117.15 972 4085.15 939 4061.82 897C4038.49 854.333 4026.82 806.333 4026.82 753C4026.82 699 4037.49 651 4058.82 609C4080.82 566.333 4111.15 533.333 4149.82 510C4189.15 486 4233.82 474 4283.82 474ZM4283.82 530C4231.82 530 4187.82 547.333 4151.82 582C4116.49 616.667 4095.49 662.333 4088.82 719H4477.82C4473.15 662.333 4453.15 616.667 4417.82 582C4382.49 547.333 4337.82 530 4283.82 530ZM4898.2 473C4948.86 473 4974.2 484 4974.2 506C4974.2 509.333 4973.86 512 4973.2 514C4971.2 521.333 4967.86 526.667 4963.2 530C4959.2 532.667 4953.53 534 4946.2 534C4940.2 534 4932.2 533.333 4922.2 532C4912.86 530.667 4904.86 530 4898.2 530C4864.86 530 4835.2 537 4809.2 551C4783.2 565 4762.86 584.333 4748.2 609C4733.53 633.667 4726.2 661.333 4726.2 692V996C4726.2 1004.67 4723.53 1012 4718.2 1018C4712.86 1023.33 4705.53 1026 4696.2 1026C4687.53 1026 4680.2 1023.33 4674.2 1018C4668.86 1012 4666.2 1004.67 4666.2 996V509C4666.2 499.667 4668.86 492.333 4674.2 487C4680.2 481.667 4687.53 479 4696.2 479C4705.53 479 4712.86 481.667 4718.2 487C4723.53 492.333 4726.2 499.667 4726.2 509V571C4745.53 540.333 4770.2 516.333 4800.2 499C4830.2 481.667 4862.86 473 4898.2 473Z" fill="white"/>
<path d="M651.538 13.6C566.061 13.6093 481.422 30.4545 402.455 63.1739C323.488 95.8932 251.738 143.846 191.303 204.294C130.868 264.742 82.9312 336.502 50.229 415.477C17.5268 494.451 0.699941 579.093 0.709232 664.571C2.49674 836.015 71.857 999.831 193.724 1120.43C315.59 1241.04 480.12 1308.68 651.574 1308.68C823.028 1308.68 987.557 1241.04 1109.42 1120.43C1231.29 999.831 1300.65 836.015 1302.44 664.571C1302.45 579.087 1285.62 494.439 1252.91 415.46C1220.21 336.481 1172.26 264.718 1111.82 204.269C1051.38 143.82 979.619 95.8688 900.643 63.1536C821.668 30.4383 737.022 13.6 651.538 13.6V13.6ZM651.609 876.821C623.736 876.821 596.136 871.331 570.385 860.664C544.633 849.998 521.235 834.363 501.526 814.654C481.816 794.945 466.182 771.547 455.516 745.795C444.849 720.044 439.359 692.444 439.359 664.571C439.359 636.698 444.849 609.098 455.516 583.346C466.182 557.595 481.816 534.197 501.526 514.487C521.235 494.778 544.633 479.144 570.385 468.477C596.136 457.811 623.736 452.321 651.609 452.321C707.901 452.321 761.888 474.683 801.692 514.487C841.497 554.292 863.859 608.279 863.859 664.571C863.859 720.863 841.497 774.85 801.692 814.654C761.888 854.459 707.901 876.821 651.609 876.821V876.821Z" fill="#383636"/>
<path d="M652.434 307.436C720.034 307.436 781.567 323.469 837.034 355.536C892.501 386.736 935.834 430.069 967.034 485.536C999.101 541.003 1015.13 602.969 1015.13 671.436V987.336C1015.13 998.603 1011.67 1008.14 1004.73 1015.94C997.801 1022.87 988.267 1026.34 976.134 1026.34C964.867 1026.34 955.334 1022.87 947.534 1015.94C940.601 1008.14 937.134 998.603 937.134 987.336V885.936C908.534 931.869 869.101 968.269 818.834 995.136C769.434 1021.14 713.967 1034.14 652.434 1034.14C583.967 1034.14 522.001 1018.54 466.534 987.336C411.067 955.269 367.301 911.503 335.234 856.036C304.034 800.569 288.434 739.036 288.434 671.436C288.434 602.969 304.034 541.003 335.234 485.536C367.301 430.069 411.067 386.736 466.534 355.536C522.001 323.469 583.967 307.436 652.434 307.436ZM652.434 961.336C706.167 961.336 754.701 948.769 798.034 923.636C841.367 898.503 875.167 863.836 899.434 819.636C924.567 775.436 937.134 726.036 937.134 671.436C937.134 616.836 924.567 567.436 899.434 523.236C875.167 479.036 841.367 444.369 798.034 419.236C754.701 393.236 706.167 380.236 652.434 380.236C598.701 380.236 550.167 393.236 506.834 419.236C463.501 444.369 429.267 479.036 404.134 523.236C379.001 567.436 366.434 616.836 366.434 671.436C366.434 726.036 379.001 775.436 404.134 819.636C429.267 863.836 463.501 898.503 506.834 923.636C550.167 948.769 598.701 961.336 652.434 961.336Z" fill="white"/>
</g>
<defs>
<clipPath id="clip0">
<rect width="5010" height="1321" fill="white"/>
</clipPath>
</defs>
</svg>
